<?xml version="1.0" encoding="utf-8"?>
<!-- Generator: Adobe Illustrator 27.9.0, SVG Export Plug-In . SVG Version: 6.00 Build 0)  -->
<svg version="1.1" id="Layer_1" xmlns="http://www.w3.org/2000/svg" xmlns:xlink="http://www.w3.org/1999/xlink" x="0px" y="0px"
	 viewBox="0 0 88.5 84.2" style="enable-background:new 0 0 88.5 84.2;" xml:space="preserve">
<style type="text/css">
	.st0{fill:#6FBC84;}
	.st1{fill:#9AC65A;}
	.st2{fill:#0E5D2B;}
	.st3{fill:#19361D;}
	.st4{fill:#A1D0A8;}
	.st5{fill:#78B948;}
	.st6{fill:#6CBB83;}
	.st7{fill:#9AC44B;}
	.st8{fill:#75B845;}
	.st9{fill:#50A158;}
	.st10{fill:#C0D348;}
	.st11{fill:#C3E0CB;}
</style>
<g>
	<polygon class="st0" points="14,36.7 14,36.7 0,32.2 16.9,84.2 25.5,72.3 	"/>
	<polygon class="st1" points="44.3,14.7 44.3,0 0,32.2 14,36.7 	"/>
	<polygon class="st1" points="74.5,36.7 88.5,32.2 44.3,0 44.3,14.7 	"/>
	<polygon class="st2" points="25.5,72.3 16.9,84.2 71.6,84.2 63,72.3 	"/>
	<polygon class="st3" points="74.5,36.7 74.5,36.7 63,72.3 71.6,84.2 88.5,32.2 	"/>
	<polygon class="st4" points="44.3,34.3 44.3,14.7 14,36.7 32.6,42.8 	"/>
	<polygon class="st5" points="32.6,42.8 14,36.7 14,36.7 25.5,72.3 37.1,56.4 	"/>
	<polygon class="st6" points="44.3,34.3 55.9,42.8 74.5,36.7 44.3,14.7 	"/>
	<polygon class="st3" points="37.1,56.4 25.5,72.3 63,72.3 51.4,56.4 	"/>
	<polygon class="st5" points="51.4,56.4 63,72.3 74.5,36.7 74.5,36.7 55.9,42.8 	"/>
	<polygon class="st1" points="37.1,56.4 51.4,56.4 55.9,42.8 44.3,34.3 32.6,42.8 	"/>
	<polygon class="st7" points="76.9,35.9 76.9,35.9 88.5,32.2 44.3,0 44.3,12.3 	"/>
	<polygon class="st8" points="11.7,35.9 44.3,12.3 44.3,0 0,32.2 11.7,35.9 	"/>
	<polygon class="st9" points="76.9,35.9 64.4,74.3 71.6,84.2 88.5,32.2 	"/>
	<polygon class="st7" points="11.7,35.9 0,32.2 16.9,84.2 24.1,74.3 	"/>
	<polygon class="st8" points="24.1,74.3 16.9,84.2 71.6,84.2 64.4,74.3 	"/>
	<polygon class="st10" points="19.8,38.6 11.7,35.9 24.1,74.3 29.2,67.3 	"/>
	<polygon class="st7" points="29.2,67.3 24.1,74.3 64.4,74.3 59.4,67.3 	"/>
	<polygon class="st7" points="44.3,20.8 44.3,12.3 11.7,35.9 11.7,35.9 19.8,38.6 	"/>
	<polygon class="st10" points="59.4,67.3 64.4,74.3 76.9,35.9 68.7,38.6 	"/>
	<polygon class="st10" points="44.3,12.3 44.3,20.8 68.7,38.6 76.9,35.9 76.9,35.9 	"/>
	<polygon class="st11" points="29.2,67.3 59.4,67.3 68.7,38.6 44.3,20.8 19.8,38.6 	"/>
</g>
</svg>
